<mxfile host="app.diagrams.net" modified="2024-03-04T12:35:09.455Z" agent="Mozilla/5.0 (Windows NT 10.0; Win64; x64) AppleWebKit/537.36 (KHTML, like Gecko) Chrome/122.0.0.0 Safari/537.36" etag="btntdvRvli-KLh6IoRAf" version="24.0.1" type="device">
  <diagram id="oU7lBioK2oj68UVmJGeL" name="Page-1">
    <mxGraphModel dx="1877" dy="1738" grid="1" gridSize="10" guides="1" tooltips="1" connect="1" arrows="0" fold="1" page="1" pageScale="1" pageWidth="827" pageHeight="1169" math="0" shadow="0">
      <root>
        <mxCell id="0" />
        <mxCell id="1" parent="0" />
        <mxCell id="X6dG0_ZqyGWDh663tGR5-1" value="fs:Player&#xa;(Lottery_Player)" style="graphMlID=n4;shape=rect;rounded=1;arcsize=30;fillColor=#ffff00;strokeColor=#000000;strokeWidth=1.0;fontStyle=1" parent="1" vertex="1">
          <mxGeometry x="804.01" y="340" width="125.99" height="40" as="geometry" />
        </mxCell>
        <mxCell id="X6dG0_ZqyGWDh663tGR5-2" value="fs:Event" style="graphMlID=n4;shape=rect;rounded=1;arcsize=30;fillColor=#ffff00;strokeColor=#000000;strokeWidth=1.0;fontStyle=1" parent="1" vertex="1">
          <mxGeometry x="-130" y="360" width="81.96822102864604" height="44" as="geometry" />
        </mxCell>
        <mxCell id="X6dG0_ZqyGWDh663tGR5-3" value="fs:Sequence&#xa;Â (Number Draw Series)" style="graphMlID=n4;shape=rect;rounded=1;arcsize=30;fillColor=#ffff00;strokeColor=#000000;strokeWidth=1.0;fontStyle=1" parent="1" vertex="1">
          <mxGeometry x="454.52" y="103" width="131" height="54" as="geometry" />
        </mxCell>
        <mxCell id="X6dG0_ZqyGWDh663tGR5-5" value="cbo:FutureEvent" style="graphMlID=n4;shape=rect;rounded=1;arcsize=30;fillColor=#ffff00;strokeColor=#000000;strokeWidth=1.0;fontStyle=1" parent="1" vertex="1">
          <mxGeometry x="-18.03" y="510" width="110.99" height="50" as="geometry" />
        </mxCell>
        <mxCell id="X6dG0_ZqyGWDh663tGR5-6" value="fs:Activity&#xa;(Lottery Draw)" style="graphMlID=n4;shape=rect;rounded=1;arcsize=30;fillColor=#ffff00;strokeColor=#000000;strokeWidth=1.0;fontStyle=1" parent="1" vertex="1">
          <mxGeometry x="470" y="270" width="91.01" height="44" as="geometry" />
        </mxCell>
        <mxCell id="SumdyEbCF_zN64hNGDhB-3" value="fs:Probability" style="graphMlID=n4;shape=rect;rounded=1;arcsize=30;fillColor=#ffff00;strokeColor=#000000;strokeWidth=1.0;fontStyle=1" parent="1" vertex="1">
          <mxGeometry x="460.02" y="-13" width="120" height="40" as="geometry" />
        </mxCell>
        <mxCell id="TsAKVSYgy9pjKIJBanpu-3" value="&quot;Low&quot;^^xsd:string&#xa;&quot;High&quot;^^xsd:string" style="graphMlID=n6;shape=parallelogram;fillColor=#ccffcc;strokeColor=#000000;strokeWidth=1.0;fontStyle=1" parent="1" vertex="1">
          <mxGeometry x="840" y="-25.25" width="150" height="64.5" as="geometry" />
        </mxCell>
        <mxCell id="DcR2EK71TW1_98MgDz5n-1" value="Prefixes" style="graphMlID=n0;shape=swimlane;startSize=20;fillColor=#b7b69e;strokeColor=#000000;strokeWidth=1.0;align=right;spacingRight=10;fontStyle=1" parent="1" vertex="1">
          <mxGeometry x="60" y="-260" width="800" height="230" as="geometry">
            <mxRectangle x="-550" y="110" width="100" height="30" as="alternateBounds" />
          </mxGeometry>
        </mxCell>
        <UserObject label="&lt;b style=&quot;border-color: var(--border-color);&quot;&gt;aff&lt;/b&gt;:&amp;nbsp;https://w3id.org/affectedBy#&lt;br&gt;&lt;b&gt;activitypattern&lt;/b&gt;:http://descartes-core.org/ontologies/activities/1.0/ActivityPattern.owl#&lt;div&gt;&lt;b&gt;dbr&lt;/b&gt;:https://dbpedia.org/ontology/&lt;br&gt;&lt;b&gt;cbo&lt;/b&gt;:https://github.com/corrado877/CognitiveBiasOntologies/blob/main/GamblersFallacyOntology/GamblersFallacyOntology.owl#&lt;br&gt;&lt;b&gt;cco:&amp;nbsp;&lt;/b&gt;&lt;span style=&quot;text-align: justify; background-color: initial;&quot;&gt;http://purl.org/ontology/cco/core#&lt;/span&gt;&lt;b&gt;&lt;br&gt;&lt;/b&gt;&lt;b&gt;fs&lt;/b&gt;:https://w3id.org/framester/data/framestercore/&lt;br&gt;&lt;b style=&quot;border-color: var(--border-color);&quot;&gt;foaf:&amp;nbsp;&lt;/b&gt;&lt;span style=&quot;border-color: var(--border-color); background-color: initial;&quot;&gt;http://xmlns.com/foaf/0.1/&lt;br&gt;&lt;b&gt;parameter&lt;/b&gt;:http://www.ontologydesignpatterns.org/cp/owl/parameter.owl#&lt;br&gt;&lt;b&gt;participation&lt;/b&gt;:&amp;nbsp;http://www.ontologydesignpatterns.org/cp/owl/participation.owl#&lt;br&gt;&lt;/span&gt;&lt;b style=&quot;border-color: var(--border-color);&quot;&gt;partof&lt;/b&gt;:&amp;nbsp;&lt;span style=&quot;border-color: var(--border-color); background-color: initial;&quot;&gt;http://www.ontologydesignpatterns.org/cp/owl/partof.owl#&lt;br&gt;&lt;/span&gt;&lt;b&gt;prov:&lt;/b&gt;http://www.w3.org/ns/prov#&lt;br&gt;&lt;b&gt;rdfs&lt;/b&gt;:http://www.w3.org/2000/01/rdf-schema#&lt;br&gt;&lt;b style=&quot;border-color: var(--border-color);&quot;&gt;xsd:&lt;/b&gt;&lt;span style=&quot;border-color: var(--border-color); background-color: initial;&quot;&gt;http://www.w3.org/2001/XMLSchema#&lt;/span&gt;&lt;/div&gt;" link="http://www.w3.org/2000/01/rdf-schema#" id="j3H0xUcFlWFZ-JWSaFpQ-1">
          <mxCell style="text;whiteSpace=wrap;html=1;" parent="DcR2EK71TW1_98MgDz5n-1" vertex="1">
            <mxGeometry x="9" y="22" width="761" height="180" as="geometry" />
          </mxCell>
        </UserObject>
        <mxCell id="I9f-uaQK-Aq1dQhWgUXI-5" value="ODPs and Ontologies Used" style="graphMlID=n0;shape=swimlane;startSize=20;fillColor=#b7b69e;strokeColor=#000000;strokeWidth=1.0;align=right;spacingRight=10;fontStyle=1" parent="1" vertex="1">
          <mxGeometry x="-320" y="-200" width="320" height="140" as="geometry" />
        </mxCell>
        <mxCell id="I9f-uaQK-Aq1dQhWgUXI-9" value="&lt;ul&gt;&lt;li&gt;Affected By&lt;/li&gt;&lt;li&gt;Activity Pattern&lt;/li&gt;&lt;li&gt;Dbpedia Ontology&lt;/li&gt;&lt;li style=&quot;border-color: var(--border-color);&quot;&gt;Cognitive Characteristic Ontology&lt;/li&gt;&lt;li&gt;Parameter&lt;/li&gt;&lt;li&gt;PartOf&lt;/li&gt;&lt;li&gt;Participation&lt;/li&gt;&lt;li&gt;Provenance&lt;/li&gt;&lt;/ul&gt;" style="text;html=1;strokeColor=none;fillColor=none;align=left;verticalAlign=middle;whiteSpace=wrap;rounded=0;" parent="I9f-uaQK-Aq1dQhWgUXI-5" vertex="1">
          <mxGeometry x="-20" y="8" width="270" height="142" as="geometry" />
        </mxCell>
        <mxCell id="9v7G8ajr_uuF-SMIUNUw-22" value="cbo:Outcome" style="graphMlID=n4;shape=rect;rounded=1;arcsize=30;fillColor=#ffff00;strokeColor=#000000;strokeWidth=1.0;fontStyle=1" parent="1" vertex="1">
          <mxGeometry x="-17.04" y="280" width="110" height="44" as="geometry" />
        </mxCell>
        <mxCell id="U0OhxdXSo77pCnsjrtBy-1" value="" style="graphMlID=e0;rounded=0;endArrow=block;strokeColor=#000080;strokeWidth=1.0;startArrow=oval;startFill=1;endFill=1;exitX=0;exitY=0.5;exitDx=0;exitDy=0;entryX=1;entryY=0.5;entryDx=0;entryDy=0;" parent="1" source="X6dG0_ZqyGWDh663tGR5-1" target="X6dG0_ZqyGWDh663tGR5-6" edge="1">
          <mxGeometry relative="1" as="geometry">
            <mxPoint x="270" y="210.08183758898736" as="sourcePoint" />
            <mxPoint x="421" y="210" as="targetPoint" />
          </mxGeometry>
        </mxCell>
        <mxCell id="U0OhxdXSo77pCnsjrtBy-2" value="&lt;span style=&quot;color: rgb(0 , 0 , 128) ; font-family: &amp;quot;dialog&amp;quot; ; font-size: 16px ; background-color: rgb(248 , 249 , 250)&quot;&gt;&lt;b&gt;participation&lt;/b&gt;:isParticipantIn&lt;/span&gt;" style="text;html=1;align=center;verticalAlign=middle;resizable=0;points=[];labelBackgroundColor=#ffffff;" parent="U0OhxdXSo77pCnsjrtBy-1" vertex="1" connectable="0">
          <mxGeometry x="-0.0174" y="2" relative="1" as="geometry">
            <mxPoint as="offset" />
          </mxGeometry>
        </mxCell>
        <mxCell id="U0OhxdXSo77pCnsjrtBy-3" value="" style="graphMlID=e0;rounded=0;endArrow=block;strokeColor=#000080;strokeWidth=1.0;startArrow=oval;startFill=1;endFill=1;exitX=0.5;exitY=0;exitDx=0;exitDy=0;entryX=1;entryY=0.5;entryDx=0;entryDy=0;" parent="1" source="X6dG0_ZqyGWDh663tGR5-1" target="X6dG0_ZqyGWDh663tGR5-3" edge="1">
          <mxGeometry relative="1" as="geometry">
            <mxPoint x="690" y="150.08183758898736" as="sourcePoint" />
            <mxPoint x="841" y="150" as="targetPoint" />
          </mxGeometry>
        </mxCell>
        <mxCell id="U0OhxdXSo77pCnsjrtBy-4" value="&lt;span style=&quot;color: rgb(0 , 0 , 128) ; font-family: &amp;quot;dialog&amp;quot; ; font-size: 16px ; background-color: rgb(248 , 249 , 250)&quot;&gt;&lt;b&gt;cco&lt;/b&gt;:belief&lt;/span&gt;" style="text;html=1;align=center;verticalAlign=middle;resizable=0;points=[];labelBackgroundColor=#ffffff;" parent="U0OhxdXSo77pCnsjrtBy-3" vertex="1" connectable="0">
          <mxGeometry x="-0.0174" y="2" relative="1" as="geometry">
            <mxPoint as="offset" />
          </mxGeometry>
        </mxCell>
        <mxCell id="U0OhxdXSo77pCnsjrtBy-5" value="" style="graphMlID=e0;rounded=0;endArrow=block;strokeColor=#000080;strokeWidth=1.0;startArrow=oval;startFill=1;endFill=1;exitX=0.5;exitY=1;exitDx=0;exitDy=0;entryX=1;entryY=0.75;entryDx=0;entryDy=0;" parent="1" source="X6dG0_ZqyGWDh663tGR5-1" target="rwo6sAAVRPEedmvHrdig-1" edge="1">
          <mxGeometry relative="1" as="geometry">
            <mxPoint x="520" y="430.08183758898736" as="sourcePoint" />
            <mxPoint x="480" y="410" as="targetPoint" />
          </mxGeometry>
        </mxCell>
        <mxCell id="U0OhxdXSo77pCnsjrtBy-6" value="&lt;span style=&quot;color: rgb(0 , 0 , 128) ; font-family: &amp;quot;dialog&amp;quot; ; font-size: 16px ; background-color: rgb(248 , 249 , 250)&quot;&gt;&lt;b&gt;cbo&lt;/b&gt;:hasBiasedOpinion&lt;/span&gt;" style="text;html=1;align=center;verticalAlign=middle;resizable=0;points=[];labelBackgroundColor=#ffffff;" parent="U0OhxdXSo77pCnsjrtBy-5" vertex="1" connectable="0">
          <mxGeometry x="-0.0174" y="2" relative="1" as="geometry">
            <mxPoint as="offset" />
          </mxGeometry>
        </mxCell>
        <mxCell id="U0OhxdXSo77pCnsjrtBy-7" value="" style="graphMlID=e0;rounded=0;endArrow=block;strokeColor=#000080;strokeWidth=1.0;startArrow=oval;startFill=1;endFill=1;exitX=0.75;exitY=0;exitDx=0;exitDy=0;entryX=0.5;entryY=1;entryDx=0;entryDy=0;" parent="1" source="rwo6sAAVRPEedmvHrdig-1" target="X6dG0_ZqyGWDh663tGR5-6" edge="1">
          <mxGeometry relative="1" as="geometry">
            <mxPoint x="270" y="220.08183758898736" as="sourcePoint" />
            <mxPoint x="421" y="220" as="targetPoint" />
          </mxGeometry>
        </mxCell>
        <mxCell id="U0OhxdXSo77pCnsjrtBy-8" value="&lt;span style=&quot;color: rgb(0 , 0 , 128) ; font-family: &amp;quot;dialog&amp;quot; ; font-size: 16px ; background-color: rgb(248 , 249 , 250)&quot;&gt;&lt;b&gt;partof&lt;/b&gt;:isPartOf&lt;/span&gt;" style="text;html=1;align=center;verticalAlign=middle;resizable=0;points=[];labelBackgroundColor=#ffffff;" parent="U0OhxdXSo77pCnsjrtBy-7" vertex="1" connectable="0">
          <mxGeometry x="-0.0174" y="2" relative="1" as="geometry">
            <mxPoint as="offset" />
          </mxGeometry>
        </mxCell>
        <mxCell id="U0OhxdXSo77pCnsjrtBy-11" value="" style="graphMlID=e0;rounded=0;endArrow=block;strokeColor=#000080;strokeWidth=1.0;startArrow=oval;startFill=1;endFill=1;entryX=0.5;entryY=0;entryDx=0;entryDy=0;" parent="1" source="X6dG0_ZqyGWDh663tGR5-3" target="X6dG0_ZqyGWDh663tGR5-6" edge="1">
          <mxGeometry relative="1" as="geometry">
            <mxPoint x="60" y="110.08183758898736" as="sourcePoint" />
            <mxPoint x="211" y="110" as="targetPoint" />
          </mxGeometry>
        </mxCell>
        <mxCell id="U0OhxdXSo77pCnsjrtBy-12" value="&lt;span style=&quot;color: rgb(0 , 0 , 128) ; font-family: &amp;quot;dialog&amp;quot; ; font-size: 16px ; background-color: rgb(248 , 249 , 250)&quot;&gt;&lt;b&gt;prov&lt;/b&gt;:wasGeneratedBy&lt;/span&gt;" style="text;html=1;align=center;verticalAlign=middle;resizable=0;points=[];labelBackgroundColor=#ffffff;" parent="U0OhxdXSo77pCnsjrtBy-11" vertex="1" connectable="0">
          <mxGeometry x="-0.0174" y="2" relative="1" as="geometry">
            <mxPoint as="offset" />
          </mxGeometry>
        </mxCell>
        <mxCell id="U0OhxdXSo77pCnsjrtBy-15" value="" style="graphMlID=e0;rounded=0;endArrow=block;strokeColor=#000080;strokeWidth=1.0;startArrow=oval;startFill=1;endFill=1;exitX=0;exitY=0.5;exitDx=0;exitDy=0;" parent="1" source="X6dG0_ZqyGWDh663tGR5-5" target="X6dG0_ZqyGWDh663tGR5-2" edge="1">
          <mxGeometry relative="1" as="geometry">
            <mxPoint x="30" y="170.08183758898736" as="sourcePoint" />
            <mxPoint x="181" y="170" as="targetPoint" />
          </mxGeometry>
        </mxCell>
        <mxCell id="U0OhxdXSo77pCnsjrtBy-16" value="&lt;span style=&quot;color: rgb(0 , 0 , 128) ; font-family: &amp;quot;dialog&amp;quot; ; font-size: 16px ; background-color: rgb(248 , 249 , 250)&quot;&gt;&lt;b&gt;rdfs&lt;/b&gt;:subClassOf&lt;/span&gt;" style="text;html=1;align=center;verticalAlign=middle;resizable=0;points=[];labelBackgroundColor=#ffffff;" parent="U0OhxdXSo77pCnsjrtBy-15" vertex="1" connectable="0">
          <mxGeometry x="-0.0174" y="2" relative="1" as="geometry">
            <mxPoint as="offset" />
          </mxGeometry>
        </mxCell>
        <mxCell id="U0OhxdXSo77pCnsjrtBy-17" value="" style="graphMlID=e0;rounded=0;endArrow=block;strokeColor=#000080;strokeWidth=1.0;startArrow=oval;startFill=1;endFill=1;entryX=0.75;entryY=1;entryDx=0;entryDy=0;" parent="1" target="rwo6sAAVRPEedmvHrdig-6" edge="1">
          <mxGeometry relative="1" as="geometry">
            <mxPoint x="210" y="450" as="sourcePoint" />
            <mxPoint x="421" y="220" as="targetPoint" />
          </mxGeometry>
        </mxCell>
        <mxCell id="U0OhxdXSo77pCnsjrtBy-18" value="&lt;span style=&quot;color: rgb(0 , 0 , 128) ; font-family: &amp;quot;dialog&amp;quot; ; font-size: 16px ; background-color: rgb(248 , 249 , 250)&quot;&gt;&lt;b&gt;dbo&lt;/b&gt;:produces&lt;/span&gt;" style="text;html=1;align=center;verticalAlign=middle;resizable=0;points=[];labelBackgroundColor=#ffffff;" parent="U0OhxdXSo77pCnsjrtBy-17" vertex="1" connectable="0">
          <mxGeometry x="-0.0174" y="2" relative="1" as="geometry">
            <mxPoint x="25" y="39" as="offset" />
          </mxGeometry>
        </mxCell>
        <mxCell id="U0OhxdXSo77pCnsjrtBy-20" value="" style="graphMlID=e0;rounded=0;endArrow=block;strokeColor=#000080;strokeWidth=1.0;startArrow=oval;startFill=1;endFill=1;entryX=1;entryY=0.5;entryDx=0;entryDy=0;exitX=0;exitY=0.5;exitDx=0;exitDy=0;" parent="1" source="X6dG0_ZqyGWDh663tGR5-3" target="rwo6sAAVRPEedmvHrdig-6" edge="1">
          <mxGeometry relative="1" as="geometry">
            <mxPoint x="360" y="160" as="sourcePoint" />
            <mxPoint x="421" y="220" as="targetPoint" />
          </mxGeometry>
        </mxCell>
        <mxCell id="U0OhxdXSo77pCnsjrtBy-21" value="&lt;span style=&quot;color: rgb(0 , 0 , 128) ; font-family: &amp;quot;dialog&amp;quot; ; font-size: 16px ; background-color: rgb(248 , 249 , 250)&quot;&gt;&lt;b&gt;cbo&lt;/b&gt;:hasOutcome&lt;/span&gt;" style="text;html=1;align=center;verticalAlign=middle;resizable=0;points=[];labelBackgroundColor=#ffffff;" parent="U0OhxdXSo77pCnsjrtBy-20" vertex="1" connectable="0">
          <mxGeometry x="-0.0174" y="2" relative="1" as="geometry">
            <mxPoint x="-12" y="-2" as="offset" />
          </mxGeometry>
        </mxCell>
        <mxCell id="U0OhxdXSo77pCnsjrtBy-22" value="" style="graphMlID=e0;rounded=0;endArrow=block;strokeColor=#000080;strokeWidth=1.0;startArrow=oval;startFill=1;endFill=1;exitX=0.374;exitY=-0.03;exitDx=0;exitDy=0;entryX=0.199;entryY=1.04;entryDx=0;entryDy=0;entryPerimeter=0;exitPerimeter=0;" parent="1" source="rwo6sAAVRPEedmvHrdig-1" target="SumdyEbCF_zN64hNGDhB-3" edge="1">
          <mxGeometry relative="1" as="geometry">
            <mxPoint x="270" y="220.08183758898736" as="sourcePoint" />
            <mxPoint x="421" y="220" as="targetPoint" />
          </mxGeometry>
        </mxCell>
        <mxCell id="U0OhxdXSo77pCnsjrtBy-23" value="&lt;span style=&quot;color: rgb(0 , 0 , 128) ; font-family: &amp;quot;dialog&amp;quot; ; font-size: 16px ; background-color: rgb(248 , 249 , 250)&quot;&gt;&lt;b&gt;parameter&lt;/b&gt;:hasParameter&lt;/span&gt;" style="text;html=1;align=center;verticalAlign=middle;resizable=0;points=[];labelBackgroundColor=#ffffff;" parent="U0OhxdXSo77pCnsjrtBy-22" vertex="1" connectable="0">
          <mxGeometry x="-0.0174" y="2" relative="1" as="geometry">
            <mxPoint as="offset" />
          </mxGeometry>
        </mxCell>
        <mxCell id="U0OhxdXSo77pCnsjrtBy-27" value="" style="graphMlID=e2;rounded=0;endArrow=block;strokeColor=#008000;strokeWidth=1.0;startArrow=oval;startFill=0;endFill=0;entryX=0.1;entryY=0.53;entryDx=0;entryDy=0;entryPerimeter=0;exitX=1;exitY=0.5;exitDx=0;exitDy=0;" parent="1" source="SumdyEbCF_zN64hNGDhB-3" target="TsAKVSYgy9pjKIJBanpu-3" edge="1">
          <mxGeometry relative="1" as="geometry">
            <mxPoint x="210" y="220" as="sourcePoint" />
            <mxPoint x="486.8107910156248" y="220.18034262995354" as="targetPoint" />
          </mxGeometry>
        </mxCell>
        <mxCell id="U0OhxdXSo77pCnsjrtBy-28" value="&lt;span style=&quot;color: rgb(0 , 128 , 0) ; font-family: &amp;quot;dialog&amp;quot; ; font-size: 16px ; background-color: rgb(248 , 249 , 250)&quot;&gt;parameter:hasParameterDataValue&lt;/span&gt;" style="text;html=1;align=center;verticalAlign=middle;resizable=0;points=[];labelBackgroundColor=#ffffff;" parent="U0OhxdXSo77pCnsjrtBy-27" vertex="1" connectable="0">
          <mxGeometry x="-0.0896" y="3" relative="1" as="geometry">
            <mxPoint as="offset" />
          </mxGeometry>
        </mxCell>
        <mxCell id="U0OhxdXSo77pCnsjrtBy-29" value="" style="graphMlID=e0;rounded=0;endArrow=block;strokeColor=#000080;strokeWidth=1.0;startArrow=oval;startFill=1;endFill=1;exitX=0.5;exitY=1;exitDx=0;exitDy=0;" parent="1" source="SumdyEbCF_zN64hNGDhB-3" target="X6dG0_ZqyGWDh663tGR5-3" edge="1">
          <mxGeometry relative="1" as="geometry">
            <mxPoint x="270" y="220.08183758898736" as="sourcePoint" />
            <mxPoint x="421" y="220" as="targetPoint" />
          </mxGeometry>
        </mxCell>
        <mxCell id="U0OhxdXSo77pCnsjrtBy-30" value="&lt;span style=&quot;color: rgb(0 , 0 , 128) ; font-family: &amp;quot;dialog&amp;quot; ; font-size: 16px ; background-color: rgb(248 , 249 , 250)&quot;&gt;&lt;b&gt;aff&lt;/b&gt;:influencedBy&lt;/span&gt;" style="text;html=1;align=center;verticalAlign=middle;resizable=0;points=[];labelBackgroundColor=#ffffff;" parent="U0OhxdXSo77pCnsjrtBy-29" vertex="1" connectable="0">
          <mxGeometry x="-0.0174" y="2" relative="1" as="geometry">
            <mxPoint as="offset" />
          </mxGeometry>
        </mxCell>
        <mxCell id="rwo6sAAVRPEedmvHrdig-1" value="cbo:NextRandomOccurence&#xa;(Number Draw)" style="graphMlID=n4;shape=rect;rounded=1;arcsize=30;fillColor=#ffff00;strokeColor=#000000;strokeWidth=1.0;fontStyle=1" parent="1" vertex="1">
          <mxGeometry x="200" y="450" width="180" height="40" as="geometry" />
        </mxCell>
        <mxCell id="rwo6sAAVRPEedmvHrdig-4" value="" style="graphMlID=e0;rounded=0;endArrow=block;strokeColor=#000080;strokeWidth=1.0;startArrow=oval;startFill=1;endFill=1;exitX=0;exitY=0.5;exitDx=0;exitDy=0;entryX=1;entryY=0.5;entryDx=0;entryDy=0;" parent="1" source="rwo6sAAVRPEedmvHrdig-1" target="X6dG0_ZqyGWDh663tGR5-5" edge="1">
          <mxGeometry relative="1" as="geometry">
            <mxPoint x="320" y="330.08183758898736" as="sourcePoint" />
            <mxPoint x="471" y="330" as="targetPoint" />
          </mxGeometry>
        </mxCell>
        <mxCell id="rwo6sAAVRPEedmvHrdig-5" value="&lt;span style=&quot;color: rgb(0 , 0 , 128) ; font-family: &amp;quot;dialog&amp;quot; ; font-size: 16px ; background-color: rgb(248 , 249 , 250)&quot;&gt;&lt;b&gt;rdfs&lt;/b&gt;:subClassOf&lt;/span&gt;" style="text;html=1;align=center;verticalAlign=middle;resizable=0;points=[];labelBackgroundColor=#ffffff;" parent="rwo6sAAVRPEedmvHrdig-4" vertex="1" connectable="0">
          <mxGeometry x="-0.0174" y="2" relative="1" as="geometry">
            <mxPoint as="offset" />
          </mxGeometry>
        </mxCell>
        <mxCell id="rwo6sAAVRPEedmvHrdig-6" value="cbo:OutcomeColorNumber&#xa;(red/black number)" style="graphMlID=n4;shape=rect;rounded=1;arcsize=30;fillColor=#ffff00;strokeColor=#000000;strokeWidth=1.0;fontStyle=1" parent="1" vertex="1">
          <mxGeometry x="-30" y="110" width="151.97" height="40" as="geometry" />
        </mxCell>
        <mxCell id="rwo6sAAVRPEedmvHrdig-10" value="" style="graphMlID=e0;rounded=0;endArrow=block;strokeColor=#000080;strokeWidth=1.0;startArrow=oval;startFill=1;endFill=1;exitX=0.442;exitY=1.05;exitDx=0;exitDy=0;entryX=0.5;entryY=0;entryDx=0;entryDy=0;exitPerimeter=0;" parent="1" source="rwo6sAAVRPEedmvHrdig-6" target="9v7G8ajr_uuF-SMIUNUw-22" edge="1">
          <mxGeometry relative="1" as="geometry">
            <mxPoint x="320" y="330.08183758898736" as="sourcePoint" />
            <mxPoint x="471" y="330" as="targetPoint" />
          </mxGeometry>
        </mxCell>
        <mxCell id="rwo6sAAVRPEedmvHrdig-11" value="&lt;span style=&quot;color: rgb(0 , 0 , 128) ; font-family: &amp;quot;dialog&amp;quot; ; font-size: 16px ; background-color: rgb(248 , 249 , 250)&quot;&gt;&lt;b&gt;rdfs&lt;/b&gt;:subClassOf&lt;/span&gt;" style="text;html=1;align=center;verticalAlign=middle;resizable=0;points=[];labelBackgroundColor=#ffffff;" parent="rwo6sAAVRPEedmvHrdig-10" vertex="1" connectable="0">
          <mxGeometry x="-0.0174" y="2" relative="1" as="geometry">
            <mxPoint as="offset" />
          </mxGeometry>
        </mxCell>
        <mxCell id="dHggUo9AAh6jhbyCJ_rB-1" value="fs:People" style="graphMlID=n4;shape=rect;rounded=1;arcsize=30;fillColor=#ffff00;strokeColor=#000000;strokeWidth=1.0;fontStyle=1" parent="1" vertex="1">
          <mxGeometry x="940" y="200" width="81.96822102864604" height="44" as="geometry" />
        </mxCell>
        <mxCell id="dHggUo9AAh6jhbyCJ_rB-3" value="" style="graphMlID=e0;rounded=0;endArrow=block;strokeColor=#000080;strokeWidth=1.0;startArrow=oval;startFill=1;endFill=1;exitX=0.5;exitY=0;exitDx=0;exitDy=0;entryX=0.5;entryY=1;entryDx=0;entryDy=0;" parent="1" source="X6dG0_ZqyGWDh663tGR5-1" target="dHggUo9AAh6jhbyCJ_rB-1" edge="1">
          <mxGeometry relative="1" as="geometry">
            <mxPoint x="1000" y="280.08183758898736" as="sourcePoint" />
            <mxPoint x="1151" y="280" as="targetPoint" />
          </mxGeometry>
        </mxCell>
        <mxCell id="dHggUo9AAh6jhbyCJ_rB-4" value="&lt;span style=&quot;color: rgb(0 , 0 , 128) ; font-family: &amp;quot;dialog&amp;quot; ; font-size: 16px ; background-color: rgb(248 , 249 , 250)&quot;&gt;&lt;b&gt;rdfs&lt;/b&gt;:subClassOf&lt;/span&gt;" style="text;html=1;align=center;verticalAlign=middle;resizable=0;points=[];labelBackgroundColor=#ffffff;" parent="dHggUo9AAh6jhbyCJ_rB-3" vertex="1" connectable="0">
          <mxGeometry x="-0.0174" y="2" relative="1" as="geometry">
            <mxPoint as="offset" />
          </mxGeometry>
        </mxCell>
      </root>
    </mxGraphModel>
  </diagram>
</mxfile>
